<svg width="84" height="24" viewBox="0 0 84 24" fill="none" xmlns="http://www.w3.org/2000/svg">
<path d="M15.154 22.607C19.12 21.913 22.395 21.338 22.433 21.33L22.501 21.316L18.757 16.8991C16.698 14.4701 15.013 12.4732 15.013 12.4617C15.013 12.4399 18.879 1.88211 18.901 1.84451C18.908 1.83201 21.539 6.33651 25.278 12.7639C28.779 18.7813 31.665 23.743 31.692 23.789L31.741 23.874L19.842 23.872L7.944 23.871L15.154 22.607ZM60.783 21.539C58.972 21.424 57.918 20.4014 57.639 18.487C57.565 17.9777 57.565 17.9645 57.557 14.6583L57.55 11.4584H58.351H59.153L59.159 14.5535C59.165 17.343 59.168 17.6701 59.195 17.8663C59.305 18.6627 59.522 19.1983 59.892 19.5827C60.188 19.8904 60.534 20.0705 61.014 20.1661C61.24 20.2112 61.884 20.2113 62.091 20.1663C62.577 20.0601 62.967 19.8502 63.311 19.5093C63.703 19.1208 63.993 18.5695 64.133 17.9461L64.18 17.736L64.185 14.6147L64.191 11.4934H65.009H65.827V16.4001V21.307H65.017H64.208V20.5284C64.208 19.9994 64.202 19.7518 64.189 19.7559C64.179 19.7592 64.138 19.8223 64.097 19.8961C63.818 20.4009 63.353 20.8626 62.843 21.141C62.232 21.474 61.62 21.593 60.783 21.539ZM79.166 21.531C78.527 21.484 77.854 21.266 77.304 20.9283C76.144 20.2168 75.458 19.0442 75.257 17.4303C75.187 16.8719 75.179 16.1218 75.237 15.6472C75.367 14.5869 75.787 13.5461 76.385 12.803C76.538 12.6125 76.886 12.2675 77.078 12.1154C77.597 11.7047 78.204 11.4175 78.848 11.2777C79.223 11.1963 79.884 11.1581 80.283 11.1947C81.284 11.2868 82.202 11.7545 82.826 12.4907C83.46 13.2386 83.809 14.2837 83.853 15.5707C83.86 15.7723 83.862 16.1259 83.857 16.3564L83.848 16.7755L80.34 16.7799L76.832 16.7843V16.9396C76.832 17.4122 76.948 17.9506 77.148 18.4086C77.321 18.8036 77.618 19.2349 77.861 19.4436C78.361 19.8716 78.972 20.1277 79.64 20.1894C79.888 20.2122 80.52 20.1882 80.802 20.1451C81.608 20.0223 82.374 19.7088 82.993 19.2487C83.066 19.1946 83.136 19.144 83.148 19.1363C83.166 19.1251 83.17 19.2665 83.17 19.861L83.169 20.5996L83.003 20.7013C82.303 21.131 81.502 21.406 80.653 21.51C80.399 21.54 79.469 21.554 79.166 21.531ZM82.22 15.3019C82.22 14.5101 81.883 13.6306 81.407 13.1778C81.067 12.8546 80.657 12.657 80.168 12.582C79.937 12.5466 79.45 12.5602 79.207 12.609C78.692 12.7122 78.266 12.9367 77.895 13.3006C77.504 13.6837 77.211 14.149 77.027 14.6791C76.96 14.8697 76.883 15.1827 76.859 15.3568L76.847 15.4397H79.533H82.22V15.3019ZM34.631 21.285C34.635 21.273 35.827 18.1692 37.279 14.3877L39.919 7.51221H40.767L41.615 7.51211L41.685 7.69111C41.9 8.23811 46.97 21.292 46.97 21.299C46.97 21.303 46.564 21.307 46.068 21.307H45.165L44.435 19.3772L43.704 17.4478H40.762H37.82L37.794 17.5132C37.78 17.5492 37.468 18.4174 37.101 19.4424L36.432 21.306H35.528C34.812 21.307 34.625 21.302 34.631 21.285ZM43.167 15.9755C43.167 15.9724 42.675 14.6503 42.074 13.0375C40.95 10.0203 40.887 9.83871 40.798 9.35431C40.757 9.12721 40.736 9.12081 40.711 9.32811C40.693 9.47631 40.616 9.80781 40.557 9.99171C40.528 10.0829 40.022 11.4611 39.432 13.0543C38.843 14.6476 38.36 15.9579 38.36 15.9661C38.36 15.9743 39.442 15.981 40.764 15.981C42.086 15.981 43.167 15.9785 43.167 15.9755ZM47.516 21.056V20.8043L50.447 16.808L53.378 12.8117L50.725 12.803L48.071 12.7943L48.066 12.1263L48.061 11.4584H51.9H55.739V11.684V11.9096L52.807 15.9277C51.195 18.1376 49.875 19.9495 49.875 19.954C49.875 19.9586 51.179 19.9623 52.772 19.9623H55.668V20.6346V21.307H51.592H47.516V21.056ZM69.026 21.295C69.02 21.289 69.014 19.0729 69.014 16.371V11.4584H69.815H70.616V12.4712C70.616 13.0282 70.623 13.484 70.632 13.484C70.64 13.484 70.679 13.3928 70.718 13.2814C70.898 12.7707 71.211 12.2935 71.613 11.9143C71.976 11.5727 72.39 11.3684 72.879 11.2902C73.016 11.2682 73.133 11.264 73.407 11.2711C73.752 11.28 73.932 11.305 74.142 11.3731L74.208 11.3945V12.2191V13.0438L74.019 12.9499C73.685 12.7839 73.355 12.7182 72.958 12.7387C72.7 12.752 72.531 12.7848 72.324 12.8616C71.9 13.0197 71.555 13.2986 71.315 13.6793C70.966 14.2305 70.718 14.9389 70.645 15.5901C70.632 15.7069 70.624 16.6586 70.621 18.5348L70.616 21.307H69.827C69.393 21.307 69.032 21.302 69.026 21.295ZM0.875 21.261C0.875 21.254 2.639 18.2174 4.795 14.5117L8.715 7.77401L13.284 3.97171C15.797 1.88051 17.859 0.166911 17.867 0.163811C17.876 0.160711 17.843 0.243208 17.794 0.347108C17.745 0.451108 15.513 5.19971 12.833 10.8997L7.961 21.263L4.418 21.268C2.469 21.27 0.875 21.267 0.875 21.261Z" fill="#0089D6"/>
</svg>
