<svg width="71" height="83" viewBox="0 0 71 83" fill="none" xmlns="http://www.w3.org/2000/svg">
<path d="M51.6958 31.8375V69.6085L70.1008 58.9385V20.483L51.6958 31.8375Z" fill="#33369F"/>
<path d="M35.959 0L0 19.7414L19.712 31.8375L35.902 22.7085L51.695 31.8375L70.1 20.4831L35.959 0Z" fill="#B7B9E7"/>
<path d="M0 19.7415L19.769 31.8375L19.599 50.4945L41.64 62.4765L41.867 82.9025L0 59.0535V19.7415Z" fill="#7173CD"/>
<path d="M35.9028 22.7085L51.6948 31.8375C51.6948 31.8375 51.7379 50.7475 51.7379 50.4625C52.8849 51.0155 36.1298 42.1075 36.1298 42.1075L35.9028 22.7085Z" fill="#7173CD"/>
<path d="M19.5979 50.4945L36.1289 42.1075L35.9019 22.7085L19.7679 31.8375L19.5979 50.4945Z" fill="#33369F"/>
<path d="M41.6389 62.4765L19.5979 50.4945L36.1289 42.1075L57.2609 53.4045L41.6389 62.4765Z" fill="#B7B9E7"/>
<path d="M41.8679 82.9025L56.9789 72.6895L57.2629 53.4045L41.6409 62.4765L41.8679 82.9025Z" fill="#33369F"/>
</svg>
