<svg width="29" height="28" viewBox="0 0 29 28" fill="none" xmlns="http://www.w3.org/2000/svg">
<path d="M9.56603 27.831C8.89003 27.831 8.25102 27.53 7.81902 26.986L1.24502 18.816C0.813017 18.271 0.64401 17.577 0.81301 16.9L3.16103 6.703C3.31103 6.026 3.76201 5.482 4.38201 5.181L13.886 0.636002C14.187 0.486002 14.525 0.410995 14.863 0.410995C15.201 0.410995 15.539 0.486002 15.84 0.636002L25.344 5.16299C25.964 5.46299 26.415 6.00801 26.565 6.68401L28.913 16.882C29.063 17.558 28.913 18.253 28.481 18.797L21.907 26.967C21.475 27.493 20.836 27.812 20.16 27.812L9.56603 27.831Z" fill="#326DE6"/>
<path d="M24.3671 16.187C24.3481 16.187 24.3481 16.187 24.3671 16.187H24.348C24.329 16.187 24.31 16.187 24.31 16.168C24.273 16.168 24.235 16.149 24.198 16.149C24.066 16.13 23.954 16.112 23.841 16.112C23.784 16.112 23.7281 16.112 23.6531 16.093H23.634C23.24 16.055 22.92 16.018 22.62 15.924C22.488 15.867 22.451 15.792 22.413 15.717C22.413 15.698 22.3941 15.698 22.3941 15.68L22.15 15.605C22.266 14.721 22.2211 13.824 22.0191 12.956C21.8141 12.081 21.4581 11.249 20.9671 10.496L21.155 10.327V10.29C21.155 10.196 21.174 10.102 21.249 10.008C21.474 9.801 21.756 9.63199 22.094 9.42599C22.15 9.38799 22.207 9.369 22.263 9.332C22.376 9.275 22.47 9.219 22.582 9.144C22.601 9.125 22.639 9.106 22.676 9.069C22.695 9.05 22.714 9.05001 22.714 9.03101C22.977 8.80601 23.033 8.43 22.845 8.186C22.751 8.055 22.582 7.98 22.413 7.98C22.263 7.98 22.132 8.036 22 8.13L21.9631 8.16701C21.9251 8.18601 21.906 8.224 21.869 8.242C21.775 8.336 21.699 8.411 21.624 8.505C21.587 8.543 21.5491 8.59899 21.4931 8.63699C21.2301 8.91899 20.9861 9.144 20.7421 9.313C20.6851 9.35 20.629 9.369 20.573 9.369C20.535 9.369 20.497 9.36901 20.46 9.35001H20.422L20.197 9.50101C19.953 9.23801 19.69 9.012 19.427 8.787C18.295 7.902 16.9321 7.361 15.5011 7.228L15.482 6.98399L15.4451 6.94701C15.3881 6.89001 15.3131 6.834 15.2941 6.702C15.2761 6.402 15.3131 6.064 15.3511 5.688V5.66901C15.3511 5.61301 15.37 5.53799 15.388 5.48199C15.407 5.36899 15.4261 5.256 15.4451 5.125V4.95599C15.4451 4.61799 15.182 4.336 14.862 4.336C14.712 4.336 14.5621 4.411 14.4491 4.524C14.3371 4.637 14.28 4.78699 14.28 4.95599V5.106C14.28 5.238 14.2991 5.35 14.3371 5.463C14.3551 5.519 14.355 5.576 14.374 5.651V5.66901C14.412 6.04501 14.468 6.38301 14.43 6.68401C14.412 6.81501 14.337 6.87099 14.28 6.92799L14.2431 6.965L14.224 7.209C13.886 7.247 13.5481 7.285 13.2091 7.36C11.7631 7.679 10.486 8.412 9.49104 9.463L9.30305 9.332H9.26506C9.22806 9.332 9.19005 9.35001 9.15205 9.35001C9.09605 9.35001 9.04005 9.33201 8.98305 9.29401C8.73905 9.12501 8.49504 8.881 8.23204 8.599C8.19404 8.562 8.15706 8.505 8.10106 8.468C8.02506 8.374 7.95003 8.299 7.85603 8.205C7.83703 8.186 7.80004 8.167 7.76204 8.13C7.74404 8.111 7.72505 8.111 7.72505 8.092C7.60905 7.996 7.46306 7.943 7.31206 7.942C7.14306 7.942 6.97405 8.017 6.88005 8.149C6.69205 8.393 6.74803 8.768 7.01103 8.994C7.03003 8.994 7.03006 9.01199 7.04906 9.01199C7.08606 9.03099 7.10505 9.069 7.14305 9.088C7.25505 9.163 7.34905 9.21899 7.46205 9.27499C7.51805 9.29399 7.57506 9.332 7.63106 9.369C7.96906 9.576 8.25106 9.745 8.47606 9.952C8.57006 10.045 8.57005 10.139 8.57005 10.233V10.271L8.75804 10.44C8.72004 10.496 8.68305 10.534 8.66405 10.59C7.72505 12.074 7.36805 13.82 7.61205 15.548L7.36806 15.623C7.36806 15.642 7.34904 15.642 7.34904 15.661C7.31204 15.736 7.25505 15.811 7.14305 15.867C6.86105 15.961 6.52304 15.999 6.12804 16.036H6.10905C6.05305 16.036 5.97804 16.036 5.92204 16.055C5.80904 16.055 5.69605 16.074 5.56505 16.093C5.52705 16.093 5.49004 16.112 5.45204 16.112C5.43304 16.112 5.41504 16.112 5.39604 16.13C5.05804 16.205 4.85106 16.525 4.90706 16.825C4.96406 17.088 5.20804 17.257 5.50804 17.257C5.56504 17.257 5.60204 17.257 5.65904 17.238C5.67704 17.238 5.69606 17.238 5.69606 17.22C5.73406 17.22 5.77104 17.201 5.80904 17.201C5.94004 17.163 6.03405 17.126 6.14705 17.069C6.20305 17.051 6.26006 17.013 6.31606 16.994H6.33504C6.69204 16.863 7.01106 16.75 7.31206 16.713H7.34904C7.46204 16.713 7.53703 16.769 7.59303 16.806C7.61203 16.806 7.61206 16.825 7.63106 16.825L7.89406 16.788C8.34506 18.177 9.20905 19.417 10.354 20.318C10.617 20.525 10.88 20.694 11.162 20.863L11.0491 21.107C11.0491 21.126 11.068 21.126 11.068 21.145C11.106 21.22 11.143 21.314 11.106 21.445C10.993 21.727 10.8241 22.009 10.6171 22.328V22.347C10.5801 22.403 10.5421 22.441 10.5051 22.497C10.4301 22.591 10.373 22.685 10.298 22.797C10.279 22.816 10.2611 22.854 10.2421 22.891C10.2421 22.91 10.223 22.929 10.223 22.929C10.073 23.248 10.1851 23.605 10.4671 23.736C10.5421 23.774 10.617 23.793 10.693 23.793C10.918 23.793 11.1431 23.643 11.2561 23.436C11.2561 23.417 11.275 23.398 11.275 23.398C11.294 23.361 11.312 23.323 11.331 23.304C11.388 23.173 11.406 23.079 11.444 22.966L11.5 22.797C11.632 22.422 11.726 22.121 11.895 21.858C11.97 21.746 12.0641 21.727 12.1391 21.689C12.1581 21.689 12.158 21.689 12.176 21.671L12.3081 21.426C13.1341 21.746 14.036 21.915 14.938 21.915C15.482 21.915 16.046 21.858 16.572 21.727C16.903 21.653 17.229 21.559 17.548 21.445L17.6611 21.652C17.6801 21.652 17.6801 21.652 17.6991 21.671C17.7931 21.689 17.868 21.727 17.943 21.84C18.093 22.103 18.2061 22.422 18.3371 22.779V22.797L18.3941 22.966C18.4311 23.079 18.4501 23.192 18.5061 23.304C18.5251 23.342 18.544 23.361 18.563 23.398C18.563 23.417 18.582 23.436 18.582 23.436C18.694 23.661 18.92 23.793 19.145 23.793C19.22 23.793 19.295 23.774 19.37 23.736C19.502 23.661 19.6151 23.549 19.6521 23.398C19.6901 23.248 19.69 23.079 19.615 22.929C19.615 22.91 19.5961 22.91 19.5961 22.891C19.5771 22.854 19.558 22.816 19.539 22.797C19.483 22.685 19.4081 22.591 19.3331 22.497C19.2951 22.441 19.258 22.403 19.22 22.347V22.328C19.014 22.009 18.826 21.727 18.732 21.445C18.694 21.314 18.7321 21.239 18.7511 21.145C18.7511 21.126 18.7691 21.126 18.7691 21.107L18.675 20.882C19.671 20.3 20.516 19.473 21.155 18.459C21.493 17.933 21.756 17.351 21.944 16.769L22.1691 16.806C22.1881 16.806 22.188 16.788 22.207 16.788C22.282 16.75 22.338 16.694 22.451 16.694H22.4881C22.7891 16.731 23.108 16.844 23.465 16.975H23.4841C23.5401 16.994 23.5971 17.032 23.6531 17.05C23.7661 17.107 23.86 17.144 23.991 17.182C24.029 17.182 24.066 17.201 24.104 17.201C24.123 17.201 24.141 17.201 24.16 17.22C24.216 17.238 24.254 17.238 24.31 17.238C24.592 17.238 24.8361 17.051 24.9111 16.806C24.9111 16.581 24.7051 16.281 24.3671 16.187ZM15.6701 15.266L14.844 15.661L14.017 15.266L13.8111 14.384L14.374 13.67H15.2941L15.858 14.384L15.6701 15.266ZM20.573 13.313C20.718 13.934 20.7631 14.575 20.7041 15.21L17.83 14.384C17.567 14.309 17.417 14.046 17.473 13.783C17.492 13.708 17.53 13.632 17.586 13.576L19.8591 11.529C20.1781 12.055 20.422 12.656 20.573 13.313ZM18.957 10.402L16.4971 12.149C16.2901 12.28 16.008 12.243 15.839 12.036C15.783 11.98 15.764 11.905 15.745 11.83L15.576 8.76801C16.855 8.91601 18.047 9.49099 18.957 10.402ZM13.5101 8.862C13.7171 8.825 13.904 8.78699 14.111 8.74899L13.942 11.754C13.923 12.017 13.717 12.243 13.435 12.243C13.36 12.243 13.2661 12.224 13.2091 12.186L10.711 10.402C11.482 9.63199 12.4391 9.106 13.5101 8.862ZM9.81004 11.529L12.0451 13.52C12.2521 13.689 12.2701 14.008 12.1011 14.215C12.0451 14.29 11.9701 14.346 11.8761 14.365L8.96504 15.21C8.85204 13.933 9.13404 12.637 9.81004 11.529ZM9.30305 16.618L12.289 16.111C12.533 16.093 12.759 16.262 12.815 16.506C12.834 16.618 12.834 16.712 12.796 16.806L11.651 19.567C10.599 18.891 9.75305 17.858 9.30305 16.618ZM16.159 20.356C15.726 20.45 15.294 20.506 14.844 20.506C14.186 20.506 13.548 20.393 12.947 20.206L14.43 17.52C14.581 17.351 14.8251 17.276 15.0311 17.389C15.1191 17.442 15.196 17.512 15.257 17.595L16.703 20.206C16.534 20.262 16.346 20.3 16.158 20.356H16.159ZM19.8211 17.745C19.3521 18.497 18.7321 19.098 18.0181 19.567L16.835 16.731C16.778 16.506 16.872 16.262 17.098 16.149C17.173 16.111 17.267 16.093 17.361 16.093L20.366 16.6C20.253 17.013 20.0651 17.389 19.8211 17.745Z" fill="white"/>
</svg>
