<svg width="34" height="20" viewBox="0 0 34 20" fill="none" xmlns="http://www.w3.org/2000/svg">
<path d="M9.618 7.49496C9.618 7.88996 9.66301 8.20896 9.74001 8.44296C9.83801 8.70696 9.956 8.96298 10.093 9.20998C10.148 9.29498 10.17 9.37997 10.17 9.45497C10.17 9.56097 10.104 9.66797 9.96001 9.77397L9.265 10.221C9.166 10.285 9.067 10.317 8.978 10.317C8.868 10.317 8.758 10.264 8.647 10.168C8.499 10.014 8.366 9.84597 8.25 9.66797C8.14 9.48697 8.03 9.28397 7.908 9.03897C7.048 10.019 5.96699 10.509 4.66499 10.509C3.73799 10.509 2.999 10.253 2.459 9.74197C1.918 9.23097 1.642 8.54997 1.642 7.69797C1.642 6.79297 1.973 6.05797 2.646 5.50397C3.319 4.95097 4.213 4.67397 5.349 4.67397C5.724 4.67397 6.11001 4.70597 6.51801 4.75897C6.92701 4.81197 7.346 4.89697 7.787 4.99297V4.21597C7.787 3.40697 7.61001 2.84296 7.26801 2.51196C6.91501 2.18196 6.32 2.02296 5.47 2.02296C5.084 2.02296 4.68701 2.06496 4.27901 2.16096C3.87101 2.25696 3.47301 2.37396 3.08701 2.52296C2.91101 2.59796 2.779 2.63997 2.701 2.66197C2.624 2.68297 2.56899 2.69296 2.52499 2.69296C2.36999 2.69296 2.293 2.58698 2.293 2.36298V1.84196C2.293 1.67096 2.315 1.54296 2.37 1.46896C2.425 1.39396 2.525 1.31996 2.679 1.24496C3.065 1.05396 3.529 0.893976 4.069 0.765976C4.61 0.627976 5.18399 0.563965 5.78999 0.563965C7.10299 0.563965 8.063 0.850964 8.681 1.42596C9.287 2.00096 9.59599 2.87397 9.59599 4.04597V7.49496H9.619H9.618ZM5.13901 9.11397C5.50301 9.11397 5.879 9.04997 6.276 8.92197C6.673 8.79497 7.02601 8.55997 7.32401 8.24097C7.50001 8.03897 7.63301 7.81498 7.69901 7.55898C7.76501 7.30398 7.80901 6.99497 7.80901 6.63297V6.18597C7.47401 6.10697 7.13601 6.04697 6.79401 6.00497C6.45001 5.96297 6.104 5.94096 5.757 5.94096C5.018 5.94096 4.47701 6.07897 4.11301 6.36697C3.74901 6.65397 3.573 7.05897 3.573 7.59097C3.573 8.09197 3.705 8.46397 3.981 8.71997C4.246 8.98597 4.63201 9.11397 5.13901 9.11397ZM13.998 10.264C13.799 10.264 13.667 10.232 13.579 10.157C13.491 10.094 13.413 9.94397 13.347 9.74197L10.755 1.51196C10.688 1.29896 10.655 1.15997 10.655 1.08597C10.655 0.914968 10.743 0.81897 10.92 0.81897H12.001C12.211 0.81897 12.354 0.850964 12.431 0.925964C12.52 0.989964 12.586 1.13897 12.652 1.34097L14.505 8.38997L16.226 1.34097C16.282 1.12797 16.348 0.989964 16.436 0.925964C16.524 0.861964 16.679 0.81897 16.877 0.81897H17.76C17.969 0.81897 18.113 0.850964 18.201 0.925964C18.289 0.989964 18.367 1.13897 18.411 1.34097L20.154 8.47498L22.062 1.34097C22.128 1.12797 22.206 0.989964 22.283 0.925964C22.371 0.861964 22.514 0.81897 22.713 0.81897H23.739C23.916 0.81897 24.015 0.904968 24.015 1.08597C24.015 1.13897 24.004 1.19197 23.993 1.25597C23.982 1.31997 23.96 1.40497 23.916 1.52197L21.257 9.75298C21.191 9.96598 21.113 10.104 21.025 10.168C20.937 10.232 20.793 10.275 20.606 10.275H19.657C19.448 10.275 19.304 10.243 19.216 10.168C19.128 10.094 19.05 9.95497 19.006 9.74197L17.296 2.87396L15.597 9.73097C15.542 9.94397 15.476 10.083 15.388 10.157C15.3 10.232 15.145 10.264 14.947 10.264H13.998ZM28.174 10.551C27.6 10.551 27.027 10.488 26.475 10.36C25.923 10.232 25.493 10.093 25.206 9.93398C25.03 9.83798 24.908 9.73197 24.864 9.63597C24.821 9.54197 24.799 9.43997 24.798 9.33797V8.79497C24.798 8.57097 24.886 8.46397 25.052 8.46397C25.119 8.46497 25.187 8.47497 25.25 8.49597C25.317 8.51797 25.416 8.55997 25.526 8.60297C25.916 8.76797 26.323 8.89297 26.74 8.97597C27.172 9.05997 27.612 9.10297 28.053 9.10297C28.748 9.10297 29.288 8.98597 29.663 8.75197C30.038 8.51797 30.237 8.17697 30.237 7.73997C30.237 7.44197 30.138 7.19696 29.939 6.99496C29.74 6.79296 29.365 6.61196 28.825 6.44096L27.225 5.96198C26.42 5.71698 25.824 5.35498 25.46 4.87598C25.096 4.40798 24.908 3.88597 24.908 3.33197C24.908 2.88497 25.008 2.49096 25.206 2.14996C25.405 1.80996 25.67 1.51196 26.001 1.27696C26.332 1.03196 26.707 0.850969 27.148 0.723969C27.589 0.595968 28.052 0.542969 28.538 0.542969C28.781 0.542969 29.034 0.552976 29.277 0.584976C29.531 0.616976 29.763 0.659965 29.994 0.701965C30.215 0.755965 30.424 0.808971 30.623 0.872971C30.822 0.936971 30.976 0.999965 31.086 1.06396C31.241 1.14996 31.351 1.23496 31.417 1.33096C31.483 1.41596 31.517 1.53298 31.517 1.68198V2.18198C31.517 2.40598 31.428 2.52296 31.263 2.52296C31.175 2.52296 31.031 2.47997 30.844 2.39497C30.215 2.11797 29.509 1.97997 28.726 1.97997C28.097 1.97997 27.6 2.07597 27.258 2.27797C26.916 2.47997 26.74 2.78897 26.74 3.22597C26.74 3.52397 26.85 3.77896 27.071 3.98196C27.291 4.18396 27.7 4.38597 28.284 4.56697L29.851 5.04697C30.645 5.29197 31.219 5.63197 31.561 6.06897C31.903 6.50497 32.068 7.00598 32.068 7.55898C32.068 8.01698 31.969 8.43297 31.781 8.79497C31.583 9.15697 31.318 9.47596 30.976 9.73196C30.634 9.99796 30.226 10.189 29.751 10.328C29.255 10.477 28.736 10.551 28.174 10.551Z" fill="#A8A8C1"/>
<path d="M30.259 15.726C26.63 18.314 21.356 19.687 16.822 19.687C10.468 19.687 4.74199 17.419 0.417993 13.65C0.0759929 13.352 0.384993 12.947 0.792993 13.181C5.46999 15.801 11.24 17.387 17.208 17.387C21.235 17.387 25.659 16.578 29.73 14.917C30.336 14.651 30.855 15.3 30.259 15.726ZM31.77 14.065C31.307 13.49 28.703 13.788 27.523 13.927C27.17 13.969 27.115 13.671 27.435 13.448C29.509 12.042 32.918 12.447 33.315 12.915C33.712 13.394 33.204 16.685 31.263 18.26C30.965 18.505 30.678 18.378 30.811 18.058C31.252 17.004 32.234 14.63 31.77 14.065Z" fill="#FF9900"/>
</svg>
