<svg width="45" height="34" viewBox="0 0 45 34" fill="none" xmlns="http://www.w3.org/2000/svg">
<path d="M22.316 18.529V22.803C29.562 22.803 35.204 15.804 32.834 8.21203C31.798 4.89403 29.161 2.25803 25.843 1.22203C18.25 -1.14797 11.249 4.49303 11.249 11.739H15.534C15.535 11.739 15.535 11.737 15.535 11.737C15.536 7.19003 20.036 3.67503 24.817 5.41003C26.589 6.05303 28.002 7.46502 28.645 9.23602C30.38 14.013 26.869 18.512 22.326 18.518V14.257H22.325H18.053V14.258V18.529H22.316ZM18.052 21.812H14.769V21.811V18.529H18.053V21.811L18.052 21.812ZM14.771 18.529H12.02C12.018 18.529 12.018 18.528 12.018 18.528V15.778C12.018 15.778 12.018 15.776 12.02 15.776H14.769C14.77 15.776 14.771 15.777 14.771 15.777V18.529Z" fill="#0080FF"/>
<path d="M4.02399 27.14C3.46699 26.753 2.77399 26.557 1.96399 26.557H0.200989V32.151H1.96399C2.77199 32.151 3.46499 31.944 4.02499 31.537C4.32899 31.321 4.56899 31.019 4.73599 30.64C4.90299 30.262 4.987 29.818 4.987 29.318C4.987 28.823 4.90299 28.384 4.73599 28.013C4.56899 27.639 4.32899 27.345 4.02399 27.14ZM1.23099 27.503H1.784C2.4 27.503 2.90699 27.624 3.29099 27.863C3.71799 28.12 3.93399 28.61 3.93399 29.318C3.93399 30.047 3.717 30.558 3.289 30.838C2.921 31.082 2.41699 31.205 1.79199 31.205H1.23099V27.503ZM5.70901 32.151H6.70099V28.211H5.70901V32.151ZM6.21399 26.488C6.04499 26.488 5.89901 26.548 5.78101 26.666C5.66201 26.779 5.60199 26.923 5.60199 27.093C5.60199 27.263 5.66201 27.408 5.78101 27.527C5.89901 27.645 6.04499 27.705 6.21399 27.705C6.38399 27.705 6.53001 27.645 6.64801 27.527C6.76701 27.408 6.827 27.262 6.827 27.093C6.827 26.923 6.76701 26.78 6.64801 26.667C6.59201 26.609 6.52401 26.564 6.45001 26.533C6.37501 26.502 6.29499 26.487 6.21399 26.488ZM10.301 28.54C10.002 28.274 9.66901 28.119 9.30801 28.119C8.76001 28.119 8.30499 28.308 7.95599 28.682C7.60199 29.051 7.422 29.528 7.422 30.097C7.422 30.653 7.599 31.127 7.948 31.508C8.3 31.876 8.75801 32.063 9.30801 32.063C9.69001 32.063 10.019 31.956 10.286 31.746V31.837C10.286 32.164 10.199 32.418 10.026 32.593C9.854 32.767 9.614 32.856 9.315 32.856C8.858 32.856 8.57098 32.676 8.22198 32.204L7.54599 32.852L7.565 32.878C7.71 33.083 7.934 33.283 8.229 33.473C8.524 33.663 8.89399 33.759 9.33099 33.759C9.91899 33.759 10.395 33.578 10.746 33.22C11.099 32.86 11.277 32.379 11.277 31.789V28.211H10.301V28.54ZM10.041 30.867C9.86799 31.064 9.64599 31.159 9.36099 31.159C9.07699 31.159 8.856 31.064 8.685 30.867C8.515 30.672 8.42899 30.412 8.42899 30.097C8.42899 29.776 8.515 29.513 8.685 29.316C8.853 29.122 9.08099 29.023 9.36099 29.023C9.64499 29.023 9.86799 29.119 10.041 29.317C10.214 29.514 10.301 29.776 10.301 30.097C10.301 30.412 10.214 30.672 10.041 30.867ZM12.126 32.151H13.118V28.211H12.126V32.151ZM12.631 26.488C12.462 26.488 12.316 26.548 12.198 26.666C12.079 26.779 12.019 26.923 12.019 27.093C12.019 27.263 12.079 27.408 12.198 27.527C12.316 27.645 12.462 27.705 12.632 27.705C12.712 27.707 12.792 27.692 12.867 27.661C12.942 27.63 13.009 27.584 13.066 27.527C13.184 27.408 13.244 27.262 13.244 27.093C13.244 26.923 13.184 26.78 13.066 26.667C13.009 26.609 12.942 26.564 12.867 26.533C12.792 26.502 12.712 26.487 12.632 26.488H12.631ZM15.291 27.147H14.315V28.211H13.748V29.115H14.315V30.751C14.315 31.263 14.417 31.63 14.619 31.84C14.821 32.052 15.181 32.159 15.687 32.159C15.848 32.159 16.011 32.153 16.169 32.143L16.214 32.14V31.237L15.874 31.255C15.638 31.255 15.48 31.213 15.405 31.132C15.329 31.049 15.291 30.873 15.291 30.611V29.115H16.214V28.211H15.291V27.147ZM19.617 28.506C19.316 28.249 18.901 28.119 18.382 28.119C18.052 28.119 17.744 28.192 17.465 28.333C17.207 28.464 16.953 28.681 16.792 28.965L16.802 28.977L17.437 29.584C17.698 29.167 17.989 29.023 18.375 29.023C18.582 29.023 18.754 29.078 18.886 29.188C19.017 29.297 19.082 29.435 19.082 29.61V29.802C18.845 29.728 18.599 29.691 18.352 29.689C17.858 29.689 17.457 29.805 17.159 30.034C16.856 30.266 16.704 30.597 16.704 31.02C16.704 31.39 16.832 31.69 17.088 31.914C17.346 32.13 17.668 32.239 18.045 32.239C18.423 32.239 18.776 32.087 19.097 31.826V32.151H20.073V29.618C20.073 29.139 19.919 28.764 19.617 28.506ZM17.856 30.645C17.969 30.567 18.128 30.527 18.329 30.527C18.567 30.527 18.82 30.575 19.082 30.67V31.056C18.866 31.257 18.578 31.358 18.225 31.358C18.054 31.358 17.92 31.32 17.829 31.245C17.739 31.171 17.695 31.077 17.695 30.958C17.695 30.823 17.748 30.721 17.856 30.645ZM20.863 32.151H21.854V26.557H20.863V32.151ZM25.452 32.235C23.862 32.235 22.568 30.942 22.568 29.351C22.568 27.761 23.862 26.468 25.452 26.468C27.042 26.468 28.336 27.761 28.336 29.351C28.336 30.942 27.042 32.235 25.452 32.235ZM25.452 27.484C24.422 27.484 23.584 28.322 23.584 29.351C23.584 30.381 24.422 31.219 25.452 31.219C26.482 31.219 27.32 30.381 27.32 29.351C27.32 28.322 26.482 27.484 25.452 27.484ZM31.871 30.742C31.694 30.941 31.513 31.113 31.373 31.203C31.236 31.291 31.063 31.336 30.859 31.336C30.566 31.336 30.332 31.229 30.14 31.01C29.95 30.792 29.854 30.512 29.854 30.177C29.854 29.842 29.949 29.563 30.137 29.346C30.325 29.128 30.559 29.023 30.851 29.023C31.17 29.023 31.507 29.221 31.796 29.562L32.451 28.934C32.024 28.378 31.479 28.119 30.828 28.119C30.284 28.119 29.812 28.317 29.426 28.708C29.041 29.096 28.847 29.591 28.847 30.177C28.847 30.764 29.041 31.259 29.425 31.65C29.809 32.041 30.281 32.239 30.828 32.239C31.546 32.239 32.125 31.929 32.516 31.362L31.871 30.742ZM35.941 28.761C35.8 28.566 35.609 28.408 35.371 28.293C35.135 28.177 34.859 28.119 34.552 28.119C33.999 28.119 33.546 28.323 33.206 28.727C32.876 29.126 32.709 29.623 32.709 30.204C32.709 30.801 32.892 31.295 33.254 31.673C33.614 32.048 34.096 32.239 34.686 32.239C35.355 32.239 35.904 31.969 36.317 31.435L36.339 31.407L35.692 30.785C35.633 30.858 35.548 30.94 35.47 31.013C35.372 31.105 35.28 31.176 35.182 31.225C35.034 31.299 34.867 31.336 34.681 31.336C34.407 31.336 34.179 31.255 34.005 31.095C33.843 30.946 33.747 30.745 33.722 30.497H36.349L36.358 30.135C36.358 29.879 36.323 29.632 36.254 29.401C36.186 29.172 36.08 28.956 35.941 28.761ZM33.774 29.689C33.822 29.5 33.908 29.344 34.033 29.222C34.167 29.09 34.342 29.023 34.552 29.023C34.793 29.023 34.979 29.091 35.106 29.226C35.223 29.351 35.289 29.507 35.303 29.689H33.774ZM39.749 28.506C39.448 28.249 39.033 28.119 38.514 28.119C38.184 28.119 37.876 28.192 37.597 28.333C37.338 28.464 37.085 28.681 36.924 28.965L36.934 28.977L37.569 29.584C37.83 29.167 38.121 29.023 38.507 29.023C38.714 29.023 38.886 29.078 39.018 29.188C39.149 29.297 39.213 29.435 39.213 29.61V29.802C38.977 29.728 38.731 29.691 38.484 29.689C37.99 29.689 37.589 29.805 37.29 30.034C36.988 30.266 36.835 30.597 36.835 31.02C36.835 31.39 36.964 31.69 37.22 31.914C37.478 32.13 37.8 32.239 38.177 32.239C38.555 32.239 38.908 32.087 39.229 31.826V32.151H40.205V29.618C40.205 29.139 40.051 28.764 39.749 28.506ZM37.988 30.645C38.101 30.567 38.259 30.527 38.461 30.527C38.699 30.527 38.952 30.575 39.213 30.67V31.056C38.998 31.257 38.71 31.358 38.357 31.358C38.186 31.358 38.052 31.32 37.961 31.245C37.871 31.171 37.827 31.077 37.827 30.958C37.827 30.823 37.88 30.721 37.988 30.645ZM44.019 28.583C43.743 28.275 43.355 28.119 42.865 28.119C42.472 28.119 42.153 28.232 41.914 28.455V28.211H40.941V32.151H41.933V29.978C41.933 29.68 42.004 29.442 42.144 29.273C42.284 29.105 42.476 29.023 42.732 29.023C42.956 29.023 43.126 29.096 43.252 29.247C43.378 29.398 43.442 29.607 43.442 29.867V32.151H44.433V29.867C44.433 29.321 44.294 28.89 44.019 28.583Z" fill="#0080FF"/>
</svg>
