<svg width="85" height="37" viewBox="0 0 85 37" fill="none" xmlns="http://www.w3.org/2000/svg">
<path d="M45.665 5.02699H46.285L48.05 3.272L48.136 2.52699C44.851 -0.356008 39.837 -0.0450077 36.937 3.22099C36.131 4.12699 35.547 5.207 35.227 6.375C35.424 6.295 35.642 6.282 35.847 6.339L39.377 5.75999C39.377 5.75999 39.556 5.46399 39.65 5.48199C41.221 3.76699 43.864 3.56799 45.678 5.02699H45.665Z" fill="#EA4335"/>
<path d="M50.565 6.375C50.159 4.89 49.326 3.554 48.168 2.534L45.691 4.996C46.737 5.846 47.333 7.12699 47.307 8.46899V8.907C48.525 8.907 49.513 9.888 49.513 11.099C49.513 12.309 48.525 13.291 47.307 13.291H42.897L42.457 13.734V16.364L42.897 16.801H47.307C50.475 16.826 53.063 14.293 53.087 11.145C53.102 9.233 52.155 7.444 50.565 6.375Z" fill="#4285F4"/>
<path d="M38.48 16.773H42.891V13.264H38.48C38.165 13.264 37.856 13.196 37.569 13.067L36.95 13.258L35.172 15.013L35.018 15.628C36.014 16.377 37.23 16.779 38.48 16.773Z" fill="#34A853"/>
<path d="M38.48 5.39C35.312 5.408 32.76 7.976 32.778 11.125C32.789 12.884 33.615 14.539 35.018 15.61L37.575 13.068C36.466 12.57 35.972 11.271 36.473 10.168C36.974 9.065 38.281 8.575 39.391 9.073C39.88 9.292 40.271 9.682 40.493 10.168L43.05 7.62601C41.963 6.21001 40.271 5.383 38.48 5.39Z" fill="#FBBC05"/>
<path d="M6.783 33.268C5.248 33.287 3.77301 32.685 2.69561 31.599C1.58261 30.56 0.960804 29.103 0.980304 27.585C0.962004 26.066 1.58381 24.611 2.69561 23.57C3.76801 22.474 5.245 21.859 6.783 21.871C8.249 21.852 9.66201 22.418 10.704 23.442L9.602 24.557C8.847 23.831 7.833 23.433 6.783 23.448C5.682 23.435 4.625 23.882 3.872 24.679C3.089 25.451 2.6578 26.508 2.6761 27.603C2.6664 28.686 3.098 29.727 3.872 30.491C5.467 32.071 8.038 32.101 9.67 30.558C10.157 30.03 10.454 29.356 10.519 28.644H6.802V27.069H12.061C12.112 27.386 12.133 27.707 12.123 28.029C12.189 29.373 11.699 30.686 10.766 31.662C9.729 32.735 8.28 33.319 6.783 33.268ZM19.011 32.221C17.544 33.618 15.23 33.618 13.764 32.221C13.053 31.536 12.665 30.588 12.692 29.605C12.665 28.622 13.054 27.673 13.764 26.989C15.232 25.595 17.543 25.595 19.011 26.989C19.72 27.673 20.109 28.622 20.082 29.605C20.108 30.589 19.717 31.538 19.005 32.221H19.011ZM14.922 31.193C15.679 31.998 16.949 32.039 17.759 31.286C17.791 31.255 17.822 31.225 17.852 31.193C18.265 30.768 18.488 30.196 18.471 29.605C18.489 29.012 18.266 28.437 17.852 28.01C17.073 27.203 15.783 27.175 14.97 27.95C14.949 27.969 14.928 27.99 14.909 28.01C14.494 28.437 14.271 29.012 14.289 29.605C14.273 30.196 14.499 30.769 14.915 31.193H14.922ZM27.075 32.221C25.609 33.618 23.295 33.618 21.828 32.221C21.118 31.536 20.73 30.588 20.757 29.605C20.73 28.622 21.119 27.673 21.828 26.989C23.295 25.591 25.609 25.591 27.075 26.989C27.785 27.673 28.174 28.622 28.147 29.605C28.175 30.588 27.786 31.536 27.075 32.221ZM22.988 31.193C23.745 31.998 25.015 32.039 25.824 31.286C25.856 31.255 25.888 31.225 25.917 31.193C26.33 30.768 26.553 30.196 26.536 29.605C26.555 29.012 26.332 28.437 25.917 28.01C25.138 27.203 23.848 27.175 23.036 27.95C23.016 27.969 22.995 27.99 22.975 28.01C22.561 28.437 22.338 29.012 22.356 29.605C22.34 30.196 22.566 30.769 22.982 31.193H22.988ZM32.377 36.555C31.635 36.578 30.907 36.348 30.314 35.902C29.789 35.51 29.375 34.987 29.112 34.388L30.524 33.802C30.678 34.161 30.918 34.476 31.224 34.72C31.551 34.981 31.961 35.12 32.382 35.107C32.921 35.14 33.448 34.938 33.825 34.554C34.198 34.106 34.383 33.532 34.34 32.953V32.423H34.284C33.805 32.988 33.087 33.296 32.345 33.255C31.406 33.257 30.507 32.869 29.868 32.183C29.176 31.504 28.793 30.572 28.809 29.604C28.792 28.631 29.175 27.693 29.868 27.006C30.506 26.317 31.404 25.926 32.345 25.928C32.739 25.927 33.129 26.014 33.485 26.18C33.794 26.314 34.068 26.514 34.291 26.766H34.347V26.18H35.883V32.737C35.965 33.785 35.609 34.821 34.898 35.601C34.222 36.244 33.313 36.588 32.377 36.555ZM32.489 31.827C33.025 31.839 33.538 31.613 33.889 31.212C34.27 30.777 34.473 30.213 34.452 29.635C34.475 29.047 34.274 28.474 33.889 28.028C33.538 27.626 33.025 27.401 32.489 27.413C31.94 27.402 31.412 27.626 31.04 28.028C30.63 28.458 30.407 29.032 30.42 29.623C30.408 30.209 30.63 30.777 31.04 31.199C31.409 31.605 31.937 31.834 32.489 31.827ZM38.615 22.285V33.046H36.999V22.285H38.615ZM43.05 33.268C42.071 33.293 41.127 32.912 40.443 32.215C39.749 31.524 39.37 30.58 39.396 29.605C39.359 28.627 39.723 27.676 40.405 26.969C41.049 26.295 41.948 25.922 42.882 25.94C43.308 25.936 43.728 26.018 44.121 26.18C44.474 26.322 44.796 26.532 45.068 26.796C45.302 27.02 45.509 27.27 45.687 27.541C45.831 27.77 45.953 28.011 46.053 28.261L46.22 28.68L41.266 30.706C41.573 31.407 42.281 31.848 43.049 31.815C43.792 31.817 44.48 31.431 44.864 30.8L46.103 31.631C45.787 32.08 45.383 32.462 44.913 32.752C44.357 33.101 43.709 33.28 43.05 33.268ZM40.982 29.493L44.277 28.132C44.176 27.893 43.994 27.695 43.762 27.573C43.504 27.427 43.211 27.353 42.914 27.357C42.41 27.37 41.931 27.58 41.583 27.942C41.16 28.345 40.939 28.913 40.982 29.493Z" fill="#A8A8C1"/>
<path d="M54.689 33.268C51.871 33.316 49.547 31.084 49.498 28.283C49.497 28.215 49.497 28.146 49.5 28.078C49.434 25.276 51.666 22.954 54.483 22.888C54.551 22.887 54.621 22.887 54.689 22.887C56.099 22.843 57.452 23.442 58.362 24.512L57.47 25.373C56.801 24.536 55.769 24.067 54.695 24.111C53.665 24.088 52.669 24.484 51.939 25.206C51.179 25.966 50.773 27.006 50.817 28.076C50.772 29.146 51.179 30.185 51.939 30.945C52.669 31.669 53.665 32.064 54.695 32.041C55.895 32.054 57.035 31.523 57.792 30.6L58.684 31.487C58.217 32.042 57.631 32.485 56.969 32.786C56.255 33.115 55.476 33.28 54.689 33.268Z" fill="#A8A8C1"/>
<path d="M61.081 33.046H59.799V23.102H61.081V33.046Z" fill="#A8A8C1"/>
<path d="M63.175 27.061C64.574 25.681 66.832 25.681 68.23 27.061C68.893 27.758 69.25 28.689 69.221 29.647C69.25 30.606 68.893 31.536 68.23 32.233C66.832 33.613 64.574 33.613 63.175 32.233C62.512 31.536 62.155 30.606 62.184 29.647C62.155 28.689 62.511 27.758 63.175 27.061ZM64.129 31.433C64.949 32.295 66.317 32.332 67.185 31.517C67.214 31.49 67.242 31.461 67.269 31.433C67.721 30.951 67.96 30.308 67.932 29.648C67.962 28.989 67.723 28.346 67.269 27.863C66.449 27.002 65.081 26.964 64.213 27.78C64.184 27.807 64.156 27.836 64.129 27.863C63.677 28.346 63.438 28.989 63.466 29.648C63.44 30.306 63.681 30.947 64.135 31.427L64.129 31.433Z" fill="#A8A8C1"/>
<path d="M76.325 33.046H75.086V32.105H75.049C74.829 32.462 74.517 32.756 74.145 32.954C73.76 33.176 73.321 33.294 72.875 33.292C72.141 33.342 71.425 33.056 70.93 32.517C70.461 31.927 70.225 31.186 70.267 30.436V26.25H71.549V30.202C71.549 31.471 72.113 32.105 73.24 32.105C73.749 32.121 74.233 31.892 74.541 31.489C74.874 31.071 75.051 30.551 75.043 30.018V26.25H76.326V33.046H76.325Z" fill="#A8A8C1"/>
<path d="M80.679 33.268C79.799 33.27 78.962 32.891 78.387 32.227C77.745 31.522 77.401 30.598 77.427 29.647C77.401 28.696 77.745 27.773 78.387 27.067C78.962 26.404 79.799 26.024 80.679 26.026C81.167 26.019 81.649 26.133 82.079 26.358C82.458 26.547 82.779 26.835 83.008 27.19H83.064L83.008 26.248V23.102H84.29V33.046H83.052V32.105H82.996C82.766 32.46 82.446 32.747 82.067 32.936C81.64 33.159 81.163 33.274 80.679 33.268ZM80.89 32.105C81.477 32.113 82.039 31.871 82.432 31.439C82.868 30.946 83.091 30.303 83.052 29.647C83.091 28.993 82.868 28.348 82.432 27.855C81.655 27.004 80.331 26.942 79.475 27.717C79.426 27.76 79.38 27.808 79.336 27.855C78.899 28.344 78.676 28.987 78.717 29.64C78.676 30.293 78.899 30.935 79.336 31.425C79.731 31.866 80.298 32.113 80.89 32.105Z" fill="#A8A8C1"/>
</svg>
